<?xml version="1.0" standalone="no"?>
<!DOCTYPE svg PUBLIC "-//W3C//DTD SVG 20010904//EN"
 "http://www.w3.org/TR/2001/REC-SVG-20010904/DTD/svg10.dtd">
<svg version="1.0" xmlns="http://www.w3.org/2000/svg"
 width="48.000000pt" height="48.000000pt" viewBox="0 0 48.000000 48.000000"
 preserveAspectRatio="xMidYMid meet">
<metadata>
Created by potrace 1.16, written by Peter Selinger 2001-2019
</metadata>
<g transform="translate(0.000000,48.000000) scale(0.100000,-0.100000)"
fill="#228B22" stroke="none">
<path d="M26 433 c-3 -4 -6 -89 -6 -190 l2 -183 214 0 215 0 -3 23 c-3 20 -9
22 -75 25 -58 2 -71 6 -66 17 3 10 20 15 54 15 82 0 115 55 64 105 -21 22 -33
25 -95 25 -55 0 -70 3 -70 15 0 11 19 15 93 17 87 3 92 4 95 26 3 21 0 22 -67
22 -64 0 -71 2 -71 20 0 18 7 20 70 20 68 0 70 1 70 25 l0 26 -132 -3 -132 -3
-1 -42 c0 -26 -7 -49 -17 -60 -17 -16 -18 -14 -18 45 l0 62 -58 0 c-32 0 -62
-3 -66 -7z m232 -213 c69 0 99 -13 71 -31 -7 -4 -51 -7 -96 -7 l-83 1 0 35 c0
33 1 34 18 19 14 -13 38 -17 90 -17z m-78 -95 c0 -8 -7 -15 -15 -15 -8 0 -15
7 -15 15 0 8 7 15 15 15 8 0 15 -7 15 -15z"/>
</g>
</svg>
