<svg width="180" height="180" viewBox="0 0 180 180" fill="none" xmlns="http://www.w3.org/2000/svg">
  <!-- Apple touch icon with rounded corners and subtle shadow -->
  <defs>
    <filter id="shadow" x="-50%" y="-50%" width="200%" height="200%">
      <feDropShadow dx="0" dy="2" stdDeviation="4" flood-opacity="0.1"/>
    </filter>
  </defs>
  
  <!-- Background -->
  <rect width="180" height="180" rx="40" fill="white" filter="url(#shadow)"/>
  <rect width="180" height="180" rx="40" fill="white" stroke="#e5e7eb" stroke-width="1"/>
  
  <!-- Main icon - centered and scaled -->
  <g transform="translate(90, 90) scale(2.8)">
    <path d="M8 6C8 4.89543 8.89543 4 10 4H22C23.1046 4 24 4.89543 24 6V8H26C27.1046 8 28 8.89543 28 10V26C28 27.1046 27.1046 28 26 28H6C4.89543 28 4 27.1046 4 26V10C4 8.89543 4.89543 8 6 8H8V6ZM10 6V8H22V6H10ZM6 10V26H26V10H6ZM12 14H20V16H12V14Z" fill="#2563eb"/>
  </g>
</svg>