<svg width="96" height="96" viewBox="0 0 96 96" fill="none" xmlns="http://www.w3.org/2000/svg">
  <!-- PWA icon 96x96 -->
  <rect width="96" height="96" rx="24" fill="#2563eb" opacity="0.1"/>
  <rect width="96" height="96" rx="24" fill="white" stroke="#2563eb" stroke-width="2"/>
  
  <!-- Main icon - centered and scaled -->
  <g transform="translate(48, 48) scale(1.5)">
    <path d="M8 6C8 4.89543 8.89543 4 10 4H22C23.1046 4 24 4.89543 24 6V8H26C27.1046 8 28 8.89543 28 10V26C28 27.1046 27.1046 28 26 28H6C4.89543 28 4 27.1046 4 26V10C4 8.89543 4.89543 8 6 8H8V6ZM10 6V8H22V6H10ZM6 10V26H26V10H6ZM12 14H20V16H12V14Z" fill="#2563eb"/>
  </g>
</svg>